<svg version="1.1" xmlns="http://www.w3.org/2000/svg" xmlns:xlink="http://www.w3.org/1999/xlink" width="780.5" height="536"><style xmlns="http://www.w3.org/1999/xhtml"></style><defs><radialGradient id="PIoGzgKQZtmh" cx="50px" cy="50px" r="50px" fx="50px" fy="50px" gradientUnits="userSpaceOnUse"><stop offset="0" stop-color="rgb(147,196,125)" stop-opacity="0"/><stop offset="1" stop-color="rgb(147,196,125)" stop-opacity="0.75"/></radialGradient><radialGradient id="qSFHRaFETKyW" cx="50px" cy="50px" r="50px" fx="50px" fy="50px" gradientUnits="userSpaceOnUse"><stop offset="0" stop-color="rgb(246,178,107)" stop-opacity="0"/><stop offset="1" stop-color="rgb(246,178,107)" stop-opacity="0.75"/></radialGradient><radialGradient id="vCLfOgbiwXCu" cx="50px" cy="50px" r="50px" fx="50px" fy="50px" gradientUnits="userSpaceOnUse"><stop offset="0" stop-color="rgb(255,217,102)" stop-opacity="0"/><stop offset="1" stop-color="rgb(255,217,102)" stop-opacity="0.75"/></radialGradient></defs><g transform="translate(0,0)"><g><rect fill="#ffffff" stroke="none" x="0" y="0" width="780.5" height="536"/></g><g transform="translate(0,0) matrix(1,0,0,1,408,186)"><g><g transform="translate(0,0) scale(3.3,3.3)"><g><path fill="url(#PIoGzgKQZtmh)" stroke="rbga(0,0,0,0)" d="M 100 50 A 50 50 0 1 0 99.99997500000208 50.04999999166668 Z" stroke-miterlimit="10"/></g></g></g></g><g transform="translate(0,0) matrix(1,0,0,1,3.5,13.5)"><g><g transform="translate(0,0) scale(2.9,2.9)"><g><path fill="url(#qSFHRaFETKyW)" stroke="rbga(0,0,0,0)" d="M 100 50 A 50 50 0 1 0 99.99997500000208 50.04999999166668 Z" stroke-miterlimit="10"/></g></g></g></g><g transform="translate(0,0) matrix(1,0,0,1,171,94)"><g><g transform="translate(0,0) scale(3.2,3.2)"><g><path fill="url(#vCLfOgbiwXCu)" stroke="rbga(0,0,0,0)" d="M 100 50 A 50 50 0 1 0 99.99997500000208 50.04999999166668 Z" stroke-miterlimit="10"/></g></g></g></g><g transform="matrix(1,0,0,1,101,59)"><g transform="translate(0,-1) matrix(1,0,0,1,0,0) translate(0,1)"><g><rect fill="rgb(0,0,0)" stroke="none" x="0" y="0" width="176" height="27" fill-opacity="0"/></g></g><g transform="translate(0,-1) matrix(1,0,0,1,0,0) translate(0,1)"><g><rect fill="rgb(0,0,0)" stroke="none" x="0" y="0" width="176" height="27" fill-opacity="0"/></g></g><g transform="translate(0,-1) matrix(1,0,0,1,0,0) translate(0,1)"><g><rect fill="rgb(0,0,0)" stroke="none" x="0" y="-1" width="47" height="28" fill-opacity="0"/></g><text fill="rgb(51, 51, 51)" stroke="none" font-family="Arial" font-size="24px" font-style="normal" font-weight="normal" text-decoration="" line-height="27px" x="0" y="21">Idea</text></g></g><g transform="matrix(1,0,0,1,305,129)"><g transform="translate(0,-1) matrix(1,0,0,1,0,0) translate(0,1)"><g><rect fill="rgb(0,0,0)" stroke="none" x="0" y="0" width="121" height="27" fill-opacity="0"/></g></g><g transform="translate(0,-1) matrix(1,0,0,1,0,0) translate(0,1)"><g><rect fill="rgb(0,0,0)" stroke="none" x="0" y="0" width="121" height="27" fill-opacity="0"/></g></g><g transform="translate(0,-1) matrix(1,0,0,1,0,0) translate(0,1)"><g><rect fill="rgb(0,0,0)" stroke="none" x="0" y="-1" width="80" height="28" fill-opacity="0"/></g><text fill="rgb(51, 51, 51)" stroke="none" font-family="Arial" font-size="24px" font-style="normal" font-weight="normal" text-decoration="" line-height="27px" x="0" y="21">Expose</text></g></g><g transform="matrix(1,0,0,1,556,217)"><g transform="translate(0,-1) matrix(1,0,0,1,0,0) translate(0,1)"><g><rect fill="rgb(0,0,0)" stroke="none" x="0" y="0" width="206" height="27" fill-opacity="0"/></g></g><g transform="translate(0,-1) matrix(1,0,0,1,0,0) translate(0,1)"><g><rect fill="rgb(0,0,0)" stroke="none" x="0" y="0" width="206" height="27" fill-opacity="0"/></g></g><g transform="translate(0,-1) matrix(1,0,0,1,0,0) translate(0,1)"><g><rect fill="rgb(0,0,0)" stroke="none" x="0" y="-1" width="81" height="28" fill-opacity="0"/></g><text fill="rgb(51, 51, 51)" stroke="none" font-family="Arial" font-size="24px" font-style="normal" font-weight="normal" text-decoration="" line-height="27px" x="0" y="21">Expand</text></g></g><g transform="matrix(1,0,0,1,26,93)"><g transform="translate(126,13) matrix(1,0,0,1,0,0) translate(-126,-13)"><g><rect fill="rgb(0,0,0)" stroke="none" x="0" y="0" width="151" height="27" fill-opacity="0"/></g></g><g transform="translate(126,13) matrix(1,0,0,1,0,0) translate(-126,-13)"><g><rect fill="rgb(0,0,0)" stroke="none" x="0" y="0" width="151" height="27" fill-opacity="0"/></g></g><g transform="translate(126,13) matrix(1,0,0,1,0,0) translate(-126,-13)"><g><rect fill="rgb(0,0,0)" stroke="none" x="3" y="0" width="144" height="27" fill-opacity="0"/></g></g><g transform="translate(126,13) matrix(1,0,0,1,0,0) translate(-126,-13)"><g><rect fill="rgb(0,0,0)" stroke="none" x="3" y="0" width="144" height="27" fill-opacity="0"/></g><text fill="rgb(0, 0, 0)" stroke="none" font-family="Arial" font-size="12px" font-style="normal" font-weight="bold" text-decoration="" line-height="14px" x="3" y="11">What</text><text fill="rgb(0, 0, 0)" stroke="none" font-family="Arial" font-size="12px" font-style="normal" font-weight="bold" text-decoration="" line-height="14px" x="37" y="11">services</text><text fill="rgb(0, 0, 0)" stroke="none" font-family="Arial" font-size="12px" font-style="normal" font-weight="bold" text-decoration="" line-height="14px" x="88" y="11">should</text><text fill="rgb(0, 0, 0)" stroke="none" font-family="Arial" font-size="12px" font-style="normal" font-weight="bold" text-decoration="" line-height="14px" x="130" y="11">my</text><text fill="rgb(0, 0, 0)" stroke="none" font-family="Arial" font-size="12px" font-style="normal" font-weight="bold" text-decoration="" line-height="14px" x="31" y="24">platform</text><text fill="rgb(0, 0, 0)" stroke="none" font-family="Arial" font-size="12px" font-style="normal" font-weight="bold" text-decoration="" line-height="14px" x="82" y="24">offer</text><text fill="rgb(0, 0, 0)" stroke="none" font-family="Arial" font-size="12px" font-style="normal" font-weight="bold" text-decoration="" line-height="14px" x="109" y="24">?&#160;</text></g><g transform="translate(126,13) matrix(1,0,0,1,0,0) translate(-126,-13)"><g/></g><g transform="translate(126,13) matrix(1,0,0,1,0,0) translate(-126,-13)"><g/></g></g><g transform="matrix(1,0,0,1,93,170)"><g transform="translate(132,13) matrix(1,0,0,1,0,0) translate(-132,-13)"><g><rect fill="rgb(0,0,0)" stroke="none" x="0" y="0" width="151" height="27" fill-opacity="0"/></g></g><g transform="translate(132,13) matrix(1,0,0,1,0,0) translate(-132,-13)"><g><rect fill="rgb(0,0,0)" stroke="none" x="0" y="0" width="151" height="27" fill-opacity="0"/></g></g><g transform="translate(132,13) matrix(1,0,0,1,0,0) translate(-132,-13)"><g><rect fill="rgb(0,0,0)" stroke="none" x="17" y="0" width="118" height="27" fill-opacity="0"/></g></g><g transform="translate(132,13) matrix(1,0,0,1,0,0) translate(-132,-13)"><g><rect fill="rgb(0,0,0)" stroke="none" x="17" y="0" width="118" height="27" fill-opacity="0"/></g><text fill="rgb(0, 0, 0)" stroke="none" font-family="Arial" font-size="12px" font-style="italic" font-weight="normal" text-decoration="" line-height="14px" x="17" y="11">Automation</text><text fill="rgb(0, 0, 0)" stroke="none" font-family="Arial" font-size="12px" font-style="italic" font-weight="normal" text-decoration="" line-height="14px" x="78" y="11">,</text><text fill="rgb(0, 0, 0)" stroke="none" font-family="Arial" font-size="12px" font-style="italic" font-weight="normal" text-decoration="" line-height="14px" x="84" y="11">Headless</text><text fill="rgb(0, 0, 0)" stroke="none" font-family="Arial" font-size="12px" font-style="italic" font-weight="normal" text-decoration="" line-height="14px" x="53" y="24">options</text><text fill="rgb(0, 0, 0)" stroke="none" font-family="Arial" font-size="12px" font-style="italic" font-weight="normal" text-decoration="" line-height="14px" x="91" y="24">?</text></g><g transform="translate(132,13) matrix(1,0,0,1,0,0) translate(-132,-13)"><g/></g><g transform="translate(132,13) matrix(1,0,0,1,0,0) translate(-132,-13)"><g/></g></g><g transform="matrix(1,0,0,1,97,129)"><g transform="translate(110,13) matrix(1,0,0,1,0,0) translate(-110,-13)"><g><rect fill="rgb(0,0,0)" stroke="none" x="0" y="0" width="151" height="27" fill-opacity="0"/></g></g><g transform="translate(110,13) matrix(1,0,0,1,0,0) translate(-110,-13)"><g><rect fill="rgb(0,0,0)" stroke="none" x="0" y="0" width="151" height="27" fill-opacity="0"/></g></g><g transform="translate(110,13) matrix(1,0,0,1,0,0) translate(-110,-13)"><g><rect fill="rgb(0,0,0)" stroke="none" x="2" y="0" width="147" height="27" fill-opacity="0"/></g></g><g transform="translate(110,13) matrix(1,0,0,1,0,0) translate(-110,-13)"><g><rect fill="rgb(0,0,0)" stroke="none" x="2" y="0" width="147" height="27" fill-opacity="0"/></g><text fill="rgb(0, 0, 0)" stroke="none" font-family="Arial" font-size="12px" font-style="italic" font-weight="normal" text-decoration="" line-height="14px" x="2" y="11">Services</text><text fill="rgb(0, 0, 0)" stroke="none" font-family="Arial" font-size="12px" font-style="italic" font-weight="normal" text-decoration="" line-height="14px" x="51" y="11">needed</text><text fill="rgb(0, 0, 0)" stroke="none" font-family="Arial" font-size="12px" font-style="italic" font-weight="normal" text-decoration="" line-height="14px" x="94" y="11">from</text><text fill="rgb(0, 0, 0)" stroke="none" font-family="Arial" font-size="12px" font-style="italic" font-weight="normal" text-decoration="" line-height="14px" x="122" y="11">other</text><text fill="rgb(0, 0, 0)" stroke="none" font-family="Arial" font-size="12px" font-style="italic" font-weight="normal" text-decoration="" line-height="14px" x="46" y="24">platforms</text><text fill="rgb(0, 0, 0)" stroke="none" font-family="Arial" font-size="12px" font-style="italic" font-weight="normal" text-decoration="" line-height="14px" x="96" y="24">?&#160;</text></g><g transform="translate(110,13) matrix(1,0,0,1,0,0) translate(-110,-13)"><g/></g><g transform="translate(110,13) matrix(1,0,0,1,0,0) translate(-110,-13)"><g/></g></g><g transform="matrix(1,0,0,1,324,178)"><g transform="translate(159,13) matrix(1,0,0,1,0,0) translate(-159,-13)"><g><rect fill="rgb(0,0,0)" stroke="none" x="0" y="0" width="151" height="27" fill-opacity="0"/></g></g><g transform="translate(159,13) matrix(1,0,0,1,0,0) translate(-159,-13)"><g><rect fill="rgb(0,0,0)" stroke="none" x="0" y="0" width="151" height="27" fill-opacity="0"/></g></g><g transform="translate(159,13) matrix(1,0,0,1,0,0) translate(-159,-13)"><g><rect fill="rgb(0,0,0)" stroke="none" x="28" y="0" width="96" height="27" fill-opacity="0"/></g></g><g transform="translate(159,13) matrix(1,0,0,1,0,0) translate(-159,-13)"><g><rect fill="rgb(0,0,0)" stroke="none" x="28" y="0" width="96" height="27" fill-opacity="0"/></g><text fill="rgb(0, 0, 0)" stroke="none" font-family="Arial" font-size="12px" font-style="normal" font-weight="bold" text-decoration="" line-height="14px" x="28" y="11">Simplify</text><text fill="rgb(0, 0, 0)" stroke="none" font-family="Arial" font-size="12px" font-style="normal" font-weight="bold" text-decoration="" line-height="14px" x="78" y="11">existing</text><text fill="rgb(0, 0, 0)" stroke="none" font-family="Arial" font-size="12px" font-style="normal" font-weight="bold" text-decoration="" line-height="14px" x="47" y="24">interfaces</text></g><g transform="translate(159,13) matrix(1,0,0,1,0,0) translate(-159,-13)"><g/></g><g transform="translate(159,13) matrix(1,0,0,1,0,0) translate(-159,-13)"><g/></g></g><g transform="matrix(1,0,0,1,283,219)"><g transform="translate(3,0) matrix(1,0,0,1,0,0) translate(-3,0)"><g><rect fill="rgb(0,0,0)" stroke="none" x="0" y="0" width="151" height="27" fill-opacity="0"/></g></g><g transform="translate(3,0) matrix(1,0,0,1,0,0) translate(-3,0)"><g><rect fill="rgb(0,0,0)" stroke="none" x="0" y="0" width="151" height="27" fill-opacity="0"/></g></g><g transform="translate(3,0) matrix(1,0,0,1,0,0) translate(-3,0)"><g><rect fill="rgb(0,0,0)" stroke="none" x="3" y="0" width="143" height="27" fill-opacity="0"/></g><text fill="rgb(0, 0, 0)" stroke="none" font-family="Arial" font-size="12px" font-style="normal" font-weight="bold" text-decoration="" line-height="14px" x="3" y="11">Liberate</text><text fill="rgb(0, 0, 0)" stroke="none" font-family="Arial" font-size="12px" font-style="normal" font-weight="bold" text-decoration="" line-height="14px" x="50" y="11">,</text><text fill="rgb(0, 0, 0)" stroke="none" font-family="Arial" font-size="12px" font-style="normal" font-weight="bold" text-decoration="" line-height="14px" x="57" y="11">share</text><text fill="rgb(0, 0, 0)" stroke="none" font-family="Arial" font-size="12px" font-style="normal" font-weight="bold" text-decoration="" line-height="14px" x="92" y="11">data</text><text fill="rgb(0, 0, 0)" stroke="none" font-family="Arial" font-size="12px" font-style="normal" font-weight="bold" text-decoration="" line-height="14px" x="120" y="11">from</text><text fill="rgb(0, 0, 0)" stroke="none" font-family="Arial" font-size="12px" font-style="normal" font-weight="bold" text-decoration="" line-height="14px" x="23" y="24">systems</text><text fill="rgb(0, 0, 0)" stroke="none" font-family="Arial" font-size="12px" font-style="normal" font-weight="bold" text-decoration="" line-height="14px" x="76" y="24">of</text><text fill="rgb(0, 0, 0)" stroke="none" font-family="Arial" font-size="12px" font-style="normal" font-weight="bold" text-decoration="" line-height="14px" x="90" y="24">record</text></g></g><g transform="matrix(1,0,0,1,221,266)"><g transform="translate(18,0) matrix(1,0,0,1,0,0) translate(-18,0)"><g><rect fill="rgb(0,0,0)" stroke="none" x="0" y="0" width="151" height="40" fill-opacity="0"/></g></g><g transform="translate(18,0) matrix(1,0,0,1,0,0) translate(-18,0)"><g><rect fill="rgb(0,0,0)" stroke="none" x="0" y="0" width="151" height="40" fill-opacity="0"/></g></g><g transform="translate(18,0) matrix(1,0,0,1,0,0) translate(-18,0)"><g><rect fill="rgb(0,0,0)" stroke="none" x="18" y="0" width="131" height="40" fill-opacity="0"/></g><text fill="rgb(0, 0, 0)" stroke="none" font-family="Arial" font-size="12px" font-style="normal" font-weight="bold" text-decoration="" line-height="14px" x="18" y="11">Move</text><text fill="rgb(0, 0, 0)" stroke="none" font-family="Arial" font-size="12px" font-style="normal" font-weight="bold" text-decoration="" line-height="14px" x="51" y="11">from</text><text fill="rgb(0, 0, 0)" stroke="none" font-family="Arial" font-size="12px" font-style="normal" font-weight="bold" text-decoration="" line-height="14px" x="81" y="11">technical</text><text fill="rgb(0, 0, 0)" stroke="none" font-family="Arial" font-size="12px" font-style="normal" font-weight="bold" text-decoration="" line-height="14px" x="10" y="24">integration</text><text fill="rgb(0, 0, 0)" stroke="none" font-family="Arial" font-size="12px" font-style="normal" font-weight="bold" text-decoration="" line-height="14px" x="74" y="24">to</text><text fill="rgb(0, 0, 0)" stroke="none" font-family="Arial" font-size="12px" font-style="normal" font-weight="bold" text-decoration="" line-height="14px" x="90" y="24">business</text><text fill="rgb(0, 0, 0)" stroke="none" font-family="Arial" font-size="12px" font-style="normal" font-weight="bold" text-decoration="" line-height="14px" x="60" y="38">focus</text></g></g><g transform="matrix(1,0,0,1,502,283)"><g transform="translate(170,13) matrix(1,0,0,1,0,0) translate(-170,-13)"><g><rect fill="rgb(0,0,0)" stroke="none" x="0" y="0" width="151" height="27" fill-opacity="0"/></g></g><g transform="translate(170,13) matrix(1,0,0,1,0,0) translate(-170,-13)"><g><rect fill="rgb(0,0,0)" stroke="none" x="0" y="0" width="151" height="27" fill-opacity="0"/></g></g><g transform="translate(170,13) matrix(1,0,0,1,0,0) translate(-170,-13)"><g><rect fill="rgb(0,0,0)" stroke="none" x="28" y="0" width="96" height="27" fill-opacity="0"/></g></g><g transform="translate(170,13) matrix(1,0,0,1,0,0) translate(-170,-13)"><g><rect fill="rgb(0,0,0)" stroke="none" x="28" y="0" width="96" height="27" fill-opacity="0"/></g><text fill="rgb(0, 0, 0)" stroke="none" font-family="Arial" font-size="12px" font-style="normal" font-weight="bold" text-decoration="" line-height="14px" x="28" y="11">Identify</text><text fill="rgb(0, 0, 0)" stroke="none" font-family="Arial" font-size="12px" font-style="normal" font-weight="bold" text-decoration="" line-height="14px" x="74" y="11">Platform</text><text fill="rgb(0, 0, 0)" stroke="none" font-family="Arial" font-size="12px" font-style="normal" font-weight="bold" text-decoration="" line-height="14px" x="37" y="24">Opportunities</text></g><g transform="translate(170,13) matrix(1,0,0,1,0,0) translate(-170,-13)"><g/></g><g transform="translate(170,13) matrix(1,0,0,1,0,0) translate(-170,-13)"><g/></g></g><g transform="matrix(1,0,0,1,475,375)"><g transform="translate(9,0) matrix(1,0,0,1,0,0) translate(-9,0)"><g><rect fill="rgb(0,0,0)" stroke="none" x="0" y="0" width="151" height="27" fill-opacity="0"/></g></g><g transform="translate(9,0) matrix(1,0,0,1,0,0) translate(-9,0)"><g><rect fill="rgb(0,0,0)" stroke="none" x="0" y="0" width="151" height="27" fill-opacity="0"/></g></g><g transform="translate(9,0) matrix(1,0,0,1,0,0) translate(-9,0)"><g><rect fill="rgb(0,0,0)" stroke="none" x="9" y="0" width="141" height="27" fill-opacity="0"/></g><text fill="rgb(0, 0, 0)" stroke="none" font-family="Arial" font-size="12px" font-style="normal" font-weight="bold" text-decoration="" line-height="14px" x="9" y="11">Enrich</text><text fill="rgb(0, 0, 0)" stroke="none" font-family="Arial" font-size="12px" font-style="normal" font-weight="bold" text-decoration="" line-height="14px" x="46" y="11">,</text><text fill="rgb(0, 0, 0)" stroke="none" font-family="Arial" font-size="12px" font-style="normal" font-weight="bold" text-decoration="" line-height="14px" x="52" y="11">extend</text><text fill="rgb(0, 0, 0)" stroke="none" font-family="Arial" font-size="12px" font-style="normal" font-weight="bold" text-decoration="" line-height="14px" x="94" y="11">services</text><text fill="rgb(0, 0, 0)" stroke="none" font-family="Arial" font-size="12px" font-style="normal" font-weight="bold" text-decoration="" line-height="14px" x="4" y="24">using</text><text fill="rgb(0, 0, 0)" stroke="none" font-family="Arial" font-size="12px" font-style="normal" font-weight="bold" text-decoration="" line-height="14px" x="40" y="24">partner</text><text fill="rgb(0, 0, 0)" stroke="none" font-family="Arial" font-size="12px" font-style="normal" font-weight="bold" text-decoration="" line-height="14px" x="84" y="24">capabilites</text></g></g><g transform="matrix(1,0,0,1,524,328)"><g transform="translate(3,0) matrix(1,0,0,1,0,0) translate(-3,0)"><g><rect fill="rgb(0,0,0)" stroke="none" x="0" y="0" width="151" height="27" fill-opacity="0"/></g></g><g transform="translate(3,0) matrix(1,0,0,1,0,0) translate(-3,0)"><g><rect fill="rgb(0,0,0)" stroke="none" x="0" y="0" width="151" height="27" fill-opacity="0"/></g></g><g transform="translate(3,0) matrix(1,0,0,1,0,0) translate(-3,0)"><g><rect fill="rgb(0,0,0)" stroke="none" x="3" y="0" width="144" height="27" fill-opacity="0"/></g><text fill="rgb(0, 0, 0)" stroke="none" font-family="Arial" font-size="12px" font-style="normal" font-weight="bold" text-decoration="" line-height="14px" x="3" y="11">Use</text><text fill="rgb(0, 0, 0)" stroke="none" font-family="Arial" font-size="12px" font-style="normal" font-weight="bold" text-decoration="" line-height="14px" x="29" y="11">analytics</text><text fill="rgb(0, 0, 0)" stroke="none" font-family="Arial" font-size="12px" font-style="normal" font-weight="bold" text-decoration="" line-height="14px" x="83" y="11">to</text><text fill="rgb(0, 0, 0)" stroke="none" font-family="Arial" font-size="12px" font-style="normal" font-weight="bold" text-decoration="" line-height="14px" x="98" y="11">generate</text><text fill="rgb(0, 0, 0)" stroke="none" font-family="Arial" font-size="12px" font-style="normal" font-weight="bold" text-decoration="" line-height="14px" x="52" y="24">insights</text></g></g><g transform="matrix(1,0,0,1,288,333)"><g transform="translate(7,0) matrix(1,0,0,1,0,0) translate(-7,0)"><g><rect fill="rgb(0,0,0)" stroke="none" x="0" y="0" width="151" height="27" fill-opacity="0"/></g></g><g transform="translate(7,0) matrix(1,0,0,1,0,0) translate(-7,0)"><g><rect fill="rgb(0,0,0)" stroke="none" x="0" y="0" width="151" height="27" fill-opacity="0"/></g></g><g transform="translate(7,0) matrix(1,0,0,1,0,0) translate(-7,0)"><g><rect fill="rgb(0,0,0)" stroke="none" x="7" y="0" width="138" height="27" fill-opacity="0"/></g><text fill="rgb(0, 0, 0)" stroke="none" font-family="Arial" font-size="12px" font-style="normal" font-weight="bold" text-decoration="" line-height="14px" x="7" y="11">Build</text><text fill="rgb(0, 0, 0)" stroke="none" font-family="Arial" font-size="12px" font-style="normal" font-weight="bold" text-decoration="" line-height="14px" x="40" y="11">Platform</text><text fill="rgb(0, 0, 0)" stroke="none" font-family="Arial" font-size="12px" font-style="normal" font-weight="bold" text-decoration="" line-height="14px" x="92" y="11">business</text><text fill="rgb(0, 0, 0)" stroke="none" font-family="Arial" font-size="12px" font-style="normal" font-weight="bold" text-decoration="" line-height="14px" x="48" y="24">capability</text></g></g><g transform="matrix(1,0,0,1,540,440)"><g transform="translate(6,0) matrix(1,0,0,1,0,0) translate(-6,0)"><g><rect fill="rgb(0,0,0)" stroke="none" x="0" y="0" width="151" height="27" fill-opacity="0"/></g></g><g transform="translate(6,0) matrix(1,0,0,1,0,0) translate(-6,0)"><g><rect fill="rgb(0,0,0)" stroke="none" x="0" y="0" width="151" height="27" fill-opacity="0"/></g></g><g transform="translate(6,0) matrix(1,0,0,1,0,0) translate(-6,0)"><g><rect fill="rgb(0,0,0)" stroke="none" x="6" y="0" width="140" height="27" fill-opacity="0"/></g><text fill="rgb(0, 0, 0)" stroke="none" font-family="Arial" font-size="12px" font-style="normal" font-weight="bold" text-decoration="" line-height="14px" x="6" y="11">Develop</text><text fill="rgb(0, 0, 0)" stroke="none" font-family="Arial" font-size="12px" font-style="normal" font-weight="bold" text-decoration="" line-height="14px" x="56" y="11">new</text><text fill="rgb(0, 0, 0)" stroke="none" font-family="Arial" font-size="12px" font-style="normal" font-weight="bold" text-decoration="" line-height="14px" x="82" y="11">customers</text><text fill="rgb(0, 0, 0)" stroke="none" font-family="Arial" font-size="12px" font-style="normal" font-weight="bold" text-decoration="" line-height="14px" x="142" y="11">,</text><text fill="rgb(0, 0, 0)" stroke="none" font-family="Arial" font-size="12px" font-style="normal" font-weight="bold" text-decoration="" line-height="14px" x="23" y="24">products</text><text fill="rgb(0, 0, 0)" stroke="none" font-family="Arial" font-size="12px" font-style="normal" font-weight="bold" text-decoration="" line-height="14px" x="74" y="24">,</text><text fill="rgb(0, 0, 0)" stroke="none" font-family="Arial" font-size="12px" font-style="normal" font-weight="bold" text-decoration="" line-height="14px" x="81" y="24">markets</text></g></g><g transform="matrix(1,0,0,1,23,210)"><g transform="translate(107,80) matrix(1,0,0,1,0,0) translate(-107,-80)"><g><rect fill="rgb(0,0,0)" stroke="none" x="0" y="0" width="151" height="40" fill-opacity="0"/></g></g><g transform="translate(107,80) matrix(1,0,0,1,0,0) translate(-107,-80)"><g><rect fill="rgb(0,0,0)" stroke="none" x="0" y="0" width="151" height="13" fill-opacity="0"/></g></g><g transform="translate(107,80) matrix(1,0,0,1,0,0) translate(-107,-80)"><g><rect fill="rgb(0,0,0)" stroke="none" x="33" y="0" width="84" height="13" fill-opacity="0"/></g><text fill="rgb(0, 0, 0)" stroke="none" font-family="Arial" font-size="12px" font-style="italic" font-weight="normal" text-decoration="" line-height="14px" x="33" y="11">Value</text><text fill="rgb(0, 0, 0)" stroke="none" font-family="Arial" font-size="12px" font-style="italic" font-weight="normal" text-decoration="" line-height="14px" x="67" y="11">Streams</text><text fill="rgb(0, 0, 0)" stroke="none" font-family="Arial" font-size="12px" font-style="italic" font-weight="normal" text-decoration="" line-height="14px" x="111" y="11">,&#160;</text></g><g transform="translate(107,80) matrix(1,0,0,1,0,0) translate(-107,-80)"><g><rect fill="rgb(0,0,0)" stroke="none" x="0" y="13" width="151" height="13" fill-opacity="0"/></g></g><g transform="translate(107,80) matrix(1,0,0,1,0,0) translate(-107,-80)"><g><rect fill="rgb(0,0,0)" stroke="none" x="20" y="13" width="110" height="13" fill-opacity="0"/></g><text fill="rgb(0, 0, 0)" stroke="none" font-family="Arial" font-size="12px" font-style="italic" font-weight="normal" text-decoration="" line-height="14px" x="20" y="24">Business</text><text fill="rgb(0, 0, 0)" stroke="none" font-family="Arial" font-size="12px" font-style="italic" font-weight="normal" text-decoration="" line-height="14px" x="72" y="24">processes</text><text fill="rgb(0, 0, 0)" stroke="none" font-family="Arial" font-size="12px" font-style="italic" font-weight="normal" text-decoration="" line-height="14px" x="127" y="24">,</text></g><g transform="translate(107,80) matrix(1,0,0,1,0,0) translate(-107,-80)"><g><rect fill="rgb(0,0,0)" stroke="none" x="0" y="27" width="151" height="13" fill-opacity="0"/></g></g><g transform="translate(107,80) matrix(1,0,0,1,0,0) translate(-107,-80)"><g><rect fill="rgb(0,0,0)" stroke="none" x="54" y="27" width="42" height="13" fill-opacity="0"/></g><text fill="rgb(0, 0, 0)" stroke="none" font-family="Arial" font-size="12px" font-style="italic" font-weight="normal" text-decoration="" line-height="14px" x="54" y="38">Entities</text></g></g></g></svg>